<svg id="Layer_1" data-name="Layer 1" xmlns="http://www.w3.org/2000/svg" viewBox="0 0 236.42 225.55"><defs><style>.cls-1{fill:#fff;}</style></defs><title>logo_white</title><g id="_Group_" data-name="&lt;Group&gt;"><g id="_Group_2" data-name="&lt;Group&gt;"><path class="cls-1" d="M108.91,119.81h68.2v10.54H120.76v52.56h36.6v10.38h-36.6v28h58.66v10.53H108.91Z" transform="translate(-27.03 -12.42)"/></g><path id="_Compound_Path_" data-name="&lt;Compound Path&gt;" class="cls-1" d="M214,92.71h2l47.47,113.2H250.92l-7.58-18.78H186.66l-7.41,18.78h-11.7Zm25,84.2-19.77-49.76A138.77,138.77,0,0,1,215,113.8s-2.3,8.08-4.45,13.35l-19.77,49.76Z" transform="translate(-27.03 -12.42)"/><path id="_Path_" data-name="&lt;Path&gt;" class="cls-1" d="M89.23,12.42h0a1,1,0,0,0-1,.93v6.13a3.11,3.11,0,0,0,2.49,3.05h0c3,.56,7.74,2.35,8.79,8.12C101.11,39.21,98.12,61,95,66.18H93.51V35.73h0a2.39,2.39,0,0,0-4.78,0h0L87,63.3a2.39,2.39,0,0,1-4.77,0L80.58,35.72h0a2.39,2.39,0,0,0-4.78,0h0V66.19H74.31c-3.12-5.14-6.11-27-4.55-35.53,1-5.77,5.8-7.56,8.79-8.12h0A3.11,3.11,0,0,0,81,19.48V13.35a1,1,0,0,0-1-.93h0a32.31,32.31,0,0,0,2.83,64.24c.58,0,1.17,0,1.74,0s1.17,0,1.75,0a32.31,32.31,0,0,0,2.83-64.24Z" transform="translate(-27.03 -12.42)"/><g id="_Group_3" data-name="&lt;Group&gt;"><path id="_Path_2" data-name="&lt;Path&gt;" class="cls-1" d="M124.41,117.84h12.27l-6.18-56.7H129L90.63,125.89A96.6,96.6,0,0,0,85,137.44a97.39,97.39,0,0,0-5.61-11.55L41,61.14H39.39L27,174.49H38.56l7.75-68.36c.82-6.93,1-17,1-17s3.63,10,7.25,16.15L84,155.72h1.31L115,105.3a106.47,106.47,0,0,0,7.08-16s.17,9.89,1,16.82Z" transform="translate(-27.03 -12.42)"/><polygon id="_Path_3" data-name="&lt;Path&gt;" class="cls-1" points="111.22 119.87 99.02 119.87 103.8 162.08 115.83 162.08 111.22 119.87"/></g><path id="_Path_4" data-name="&lt;Path&gt;" class="cls-1" d="M178,110.43l8.91,4.12a65.34,65.34,0,0,1,12.81,7.15l4.63-11.27a85.91,85.91,0,0,0-12.67-6.75l-8.9-4.12C170.26,93.79,165,89.34,165,79.46c0-9.56,6.75-16,17.79-16,10.55,0,16.48,5.28,20.76,12.2l9.56-5.93c-5.93-9.89-15.32-16.81-30.32-16.81-16.81,0-29.49,10.71-29.49,26.86C153.28,95.43,162,103.19,178,110.43Z" transform="translate(-27.03 -12.42)"/><g id="_Group_4" data-name="&lt;Group&gt;"><path id="_Path_5" data-name="&lt;Path&gt;" class="cls-1" d="M200.47,152.5a27,27,0,0,1-15.73,4.55c-15.81,0-23.55-8.06-28.83-17.46L146,144.87c5.93,11.86,17.63,22.73,39.05,22.73a48.71,48.71,0,0,0,9.78-1Z" transform="translate(-27.03 -12.42)"/><path id="_Path_6" data-name="&lt;Path&gt;" class="cls-1" d="M206.21,111.72l-4.72,11.48A18.51,18.51,0,0,1,208,138a17.33,17.33,0,0,1-3.69,10.94L197.5,166c13.44-3.71,22.34-13.68,22.34-28.06C219.84,126.29,215.24,118.28,206.21,111.72Z" transform="translate(-27.03 -12.42)"/></g><g id="_Group_5" data-name="&lt;Group&gt;"><path class="cls-1" d="M207.84,213.34a8.87,8.87,0,0,1,3,.49,7,7,0,0,1,2.31,1.37,6,6,0,0,1,1.46,2.09,6.83,6.83,0,0,1,.51,2.67,7.47,7.47,0,0,1-.35,2.32,9.66,9.66,0,0,1-1,2,14.33,14.33,0,0,1-1.42,1.86c-.54.6-1.11,1.21-1.72,1.83l-4.46,4.57c.57-.16,1.14-.3,1.7-.4a8.93,8.93,0,0,1,1.57-.15h4.26a1.71,1.71,0,0,1,1.24.44,1.48,1.48,0,0,1,.46,1.13v2.82h-16v-1.57a3,3,0,0,1,.18-1,2.45,2.45,0,0,1,.66-.94l6.58-6.62c.56-.57,1-1.1,1.47-1.62a10.23,10.23,0,0,0,1-1.51,7,7,0,0,0,.61-1.49,6.14,6.14,0,0,0,.2-1.57,3,3,0,0,0-.65-2.09,2.5,2.5,0,0,0-2-.73,2.87,2.87,0,0,0-1,.16,2.76,2.76,0,0,0-.82.42,3.09,3.09,0,0,0-.62.63,3.23,3.23,0,0,0-.41.78,2.27,2.27,0,0,1-.64,1,1.57,1.57,0,0,1-1,.31,1.94,1.94,0,0,1-.33,0l-.37,0-2.57-.46a8.44,8.44,0,0,1,1-3,7,7,0,0,1,4.19-3.38A9.93,9.93,0,0,1,207.84,213.34Z" transform="translate(-27.03 -12.42)"/><path class="cls-1" d="M231.09,227.54h2.35v2.73a.88.88,0,0,1-.25.63.9.9,0,0,1-.69.26h-1.41v5.25h-4.23v-5.25h-9.18a1.29,1.29,0,0,1-.82-.28,1.22,1.22,0,0,1-.47-.7l-.5-2.4,10.56-14.19h4.64Zm-4.23-5.95c0-.36,0-.76,0-1.18s.06-.86.11-1.31l-6,8.44h5.88Z" transform="translate(-27.03 -12.42)"/><path class="cls-1" d="M237.42,236.22a3.11,3.11,0,0,1-.45.75,2.62,2.62,0,0,1-.61.55,2.59,2.59,0,0,1-.72.33,2.91,2.91,0,0,1-.76.11h-2.07l8.9-23.35a2.52,2.52,0,0,1,.95-1.23,2.68,2.68,0,0,1,1.49-.42h2.07Z" transform="translate(-27.03 -12.42)"/><path class="cls-1" d="M262.26,213.59v2a4.18,4.18,0,0,1-.19,1.4,8.64,8.64,0,0,1-.36.91l-8,16.88a3,3,0,0,1-.93,1.14,2.57,2.57,0,0,1-1.61.46h-3.54l8.14-16.34a7.62,7.62,0,0,1,.72-1.2,8.13,8.13,0,0,1,.84-1H247.31a1,1,0,0,1-.41-.09,1.18,1.18,0,0,1-.35-.23,1.8,1.8,0,0,1-.24-.35.93.93,0,0,1-.09-.4v-3.19Z" transform="translate(-27.03 -12.42)"/></g></g></svg>